<?xml version="1.0" encoding="UTF-8" standalone="no"?>
<!-- Created with Inkscape (http://www.inkscape.org/) -->

<svg
   version="1.1"
   id="svg97"
   width="64"
   height="64"
   viewBox="0 0 64 64"
   sodipodi:docname="colorful.svg"
   inkscape:version="1.2.1 (9c6d41e410, 2022-07-14)"
   xmlns:inkscape="http://www.inkscape.org/namespaces/inkscape"
   xmlns:sodipodi="http://sodipodi.sourceforge.net/DTD/sodipodi-0.dtd"
   xmlns="http://www.w3.org/2000/svg"
   xmlns:svg="http://www.w3.org/2000/svg">
  <defs
     id="defs101" />
  <sodipodi:namedview
     id="namedview99"
     pagecolor="#ffffff"
     bordercolor="#666666"
     borderopacity="1.0"
     inkscape:showpageshadow="2"
     inkscape:pageopacity="0.0"
     inkscape:pagecheckerboard="0"
     inkscape:deskcolor="#d1d1d1"
     showgrid="false"
     inkscape:zoom="14.640625"
     inkscape:cx="21.891142"
     inkscape:cy="32"
     inkscape:window-width="1920"
     inkscape:window-height="1140"
     inkscape:window-x="0"
     inkscape:window-y="32"
     inkscape:window-maximized="1"
     inkscape:current-layer="g33358" />
  <g
     inkscape:groupmode="layer"
     inkscape:label="Image"
     id="g103">
    <g
       id="g33358">
      <path
         style="fill:#fefefe"
         d="M 10,62 H 4 V 60 58 H 6 8 V 54 50 H 10 12 V 48 46 H 16 20 V 44 42 H 22 24 V 40 38 H 26 28 V 36 34 H 30 32 V 32 30 H 36 40 V 28 26 H 38 36 V 24 22 H 34 32 V 16 10 H 34 36 V 8 6 H 38 40 V 4 2 H 46 52 V 4 6 H 54 56 V 8 10 H 58 60 V 16 22 H 58 56 V 24 26 H 54 52 V 28 30 H 54 56 V 44 58 H 54 52 V 60 62 H 46 40 V 60 58 H 36 32 V 56 54 H 26 20 V 56 58 H 18 16 V 60 62 Z M 36,46 H 40 V 42 38 H 38 36 V 40 42 H 34 32 V 44 46 Z M 38,18 H 40 V 14 10 H 38 36 V 14 18 Z"
         id="path33364" />
      <path
         style="fill:#7f7f7f"
         d="M 10,63 H 3 V 60 57 H 5 7 V 53 49 H 9 11 V 47 45 H 15 19 V 43 41 H 21 23 V 39 37 H 25 27 V 35 33 H 29 31 V 31 29 H 35 39 V 28 27 H 37 35 V 25 23 H 33 31 V 16 9 H 33 35 V 7 5 H 37 39 V 3 1 H 46 53 V 3 5 H 55 57 V 7 9 H 59 61 V 16 23 H 59 57 V 25 27 H 55 53 V 28 29 H 55 57 V 44 59 H 55 53 V 61 63 H 46 39 V 61 59 H 35 31 V 57 55 H 26 21 V 57 59 H 19 17 V 61 63 Z M 10,62 H 16 V 60 58 H 18 20 V 56 54 H 26 32 V 56 58 H 36 40 V 60 62 H 46 52 V 60 58 H 54 56 V 44 30 H 54 52 V 28 26 H 54 56 V 24 22 H 58 60 V 16 10 H 58 56 V 8 6 H 54 52 V 4 2 H 46 40 V 4 6 H 38 36 V 8 10 H 34 32 V 16 22 H 34 36 V 24 26 H 38 40 V 28 30 H 36 32 V 32 34 H 30 28 V 36 38 H 26 24 V 40 42 H 22 20 V 44 46 H 16 12 V 48 50 H 10 8 V 54 58 H 6 4 V 60 62 Z M 36,46 H 32 V 44 42 H 34 36 V 40 38 H 38 40 V 42 46 Z M 36,45 H 39 V 42 39 H 38 37 V 41 43 H 35 33 V 44 45 Z"
         id="path33362" />
      <path
         style="fill:#000000"
         d="M 38,18 H 36 V 14 10 H 38 40 V 14 18 Z"
         id="path33360" />
    </g>
  </g>
</svg>
